<svg xmlns="http://www.w3.org/2000/svg" xmlns:xlink="http://www.w3.org/1999/xlink" width="500" zoomAndPan="magnify" viewBox="0 0 375 67.499998" height="90" preserveAspectRatio="xMidYMid meet" version="1.0"><defs><g/><clipPath id="a9d7c24702"><path d="M 4.605469 0 L 62.640625 0 L 62.640625 51 L 4.605469 51 Z M 4.605469 0 " clip-rule="nonzero"/></clipPath><clipPath id="0b1ba2e618"><path d="M 4.605469 0 L 62.640625 0 L 62.640625 51 L 4.605469 51 Z M 4.605469 0 " clip-rule="nonzero"/></clipPath></defs><g fill="#000000" fill-opacity="1"><g transform="translate(62.648152, 61.861296)"><g><path d="M 28.625 0.78125 C 21.1875 0.78125 15.671875 -0.984375 12.078125 -4.515625 C 8.484375 -8.054688 6.6875 -13.296875 6.6875 -20.234375 L 6.6875 -53.984375 L 17.140625 -53.984375 L 17.140625 -20.3125 C 17.140625 -16.375 18.085938 -13.421875 19.984375 -11.453125 C 21.878906 -9.484375 24.757812 -8.5 28.625 -8.5 C 36.28125 -8.5 40.109375 -12.4375 40.109375 -20.3125 L 40.109375 -53.984375 L 50.546875 -53.984375 L 50.546875 -20.234375 C 50.546875 -13.296875 48.75 -8.054688 45.15625 -4.515625 C 41.5625 -0.984375 36.050781 0.78125 28.625 0.78125 Z M 28.625 0.78125 "/></g></g><g transform="translate(119.884036, 61.861296)"><g><path d="M 17.6875 0 L 7.015625 0 L 7.015625 -53.984375 L 17.6875 -53.984375 Z M 17.6875 0 "/></g></g><g transform="translate(144.624709, 61.861296)"><g><path d="M 25.84375 -21.71875 L 3.21875 -21.71875 L 3.21875 -30.71875 L 25.84375 -30.71875 Z M 25.84375 -21.71875 "/></g></g><g transform="translate(173.75962, 61.861296)"><g><path d="M 51.8125 0 L 40.578125 0 L 36.515625 -12.4375 L 15.84375 -12.4375 L 11.78125 0 L 0.8125 0 L 19.453125 -53.984375 L 33.15625 -53.984375 Z M 25.65625 -42.71875 L 18.71875 -21.421875 L 33.5625 -21.421875 L 26.59375 -42.71875 Z M 25.65625 -42.71875 "/></g></g><g transform="translate(226.379707, 61.861296)"><g><path d="M 27.875 -53.984375 C 31.738281 -53.984375 35.039062 -53.273438 37.78125 -51.859375 C 40.53125 -50.441406 42.609375 -48.457031 44.015625 -45.90625 C 45.421875 -43.363281 46.125 -40.40625 46.125 -37.03125 C 46.125 -33.664062 45.421875 -30.710938 44.015625 -28.171875 C 42.609375 -25.640625 40.53125 -23.664062 37.78125 -22.25 C 35.039062 -20.832031 31.738281 -20.125 27.875 -20.125 L 17.6875 -20.125 L 17.6875 0 L 7.015625 0 L 7.015625 -53.984375 Z M 26.46875 -28.578125 C 32.40625 -28.578125 35.375 -31.394531 35.375 -37.03125 C 35.375 -42.695312 32.40625 -45.53125 26.46875 -45.53125 L 17.6875 -45.53125 L 17.6875 -28.578125 Z M 26.46875 -28.578125 "/></g></g><g transform="translate(275.713347, 61.861296)"><g><path d="M 27.875 -53.984375 C 31.738281 -53.984375 35.039062 -53.273438 37.78125 -51.859375 C 40.53125 -50.441406 42.609375 -48.457031 44.015625 -45.90625 C 45.421875 -43.363281 46.125 -40.40625 46.125 -37.03125 C 46.125 -33.664062 45.421875 -30.710938 44.015625 -28.171875 C 42.609375 -25.640625 40.53125 -23.664062 37.78125 -22.25 C 35.039062 -20.832031 31.738281 -20.125 27.875 -20.125 L 17.6875 -20.125 L 17.6875 0 L 7.015625 0 L 7.015625 -53.984375 Z M 26.46875 -28.578125 C 32.40625 -28.578125 35.375 -31.394531 35.375 -37.03125 C 35.375 -42.695312 32.40625 -45.53125 26.46875 -45.53125 L 17.6875 -45.53125 L 17.6875 -28.578125 Z M 26.46875 -28.578125 "/></g></g></g><g fill="#000000" fill-opacity="1"><g transform="translate(313.416177, 60.069624)"><g><path d="M 3.46875 0.109375 C 3.03125 0.109375 2.644531 0.0195312 2.3125 -0.15625 C 1.988281 -0.332031 1.738281 -0.578125 1.5625 -0.890625 C 1.382812 -1.203125 1.296875 -1.550781 1.296875 -1.9375 C 1.296875 -2.332031 1.382812 -2.6875 1.5625 -3 C 1.738281 -3.3125 1.988281 -3.554688 2.3125 -3.734375 C 2.644531 -3.921875 3.03125 -4.015625 3.46875 -4.015625 C 3.914062 -4.015625 4.300781 -3.925781 4.625 -3.75 C 4.957031 -3.570312 5.210938 -3.328125 5.390625 -3.015625 C 5.566406 -2.703125 5.65625 -2.347656 5.65625 -1.953125 C 5.65625 -1.359375 5.457031 -0.863281 5.0625 -0.46875 C 4.664062 -0.0820312 4.132812 0.109375 3.46875 0.109375 Z M 3.46875 0.109375 "/></g></g></g><g fill="#000000" fill-opacity="1"><g transform="translate(320.3656, 60.069624)"><g><path d="M 7.90625 0.265625 C 6.59375 0.265625 5.429688 -0.00390625 4.421875 -0.546875 C 3.421875 -1.097656 2.632812 -1.898438 2.0625 -2.953125 C 1.5 -4.015625 1.21875 -5.289062 1.21875 -6.78125 C 1.21875 -8.269531 1.5 -9.546875 2.0625 -10.609375 C 2.632812 -11.671875 3.421875 -12.472656 4.421875 -13.015625 C 5.421875 -13.554688 6.5625 -13.828125 7.84375 -13.828125 C 10.707031 -13.828125 12.546875 -12.789062 13.359375 -10.71875 L 11.015625 -9.046875 L 10.75 -9.046875 C 10.476562 -9.679688 10.117188 -10.15625 9.671875 -10.46875 C 9.222656 -10.78125 8.613281 -10.9375 7.84375 -10.9375 C 6.863281 -10.9375 6.097656 -10.59375 5.546875 -9.90625 C 4.992188 -9.226562 4.71875 -8.1875 4.71875 -6.78125 C 4.71875 -5.382812 5 -4.34375 5.5625 -3.65625 C 6.125 -2.976562 6.90625 -2.640625 7.90625 -2.640625 C 8.644531 -2.640625 9.269531 -2.835938 9.78125 -3.234375 C 10.300781 -3.628906 10.671875 -4.203125 10.890625 -4.953125 L 11.15625 -4.96875 L 13.578125 -3.640625 C 13.234375 -2.492188 12.59375 -1.554688 11.65625 -0.828125 C 10.726562 -0.0976562 9.476562 0.265625 7.90625 0.265625 Z M 7.90625 0.265625 "/></g></g></g><g fill="#000000" fill-opacity="1"><g transform="translate(334.350546, 60.069624)"><g><path d="M 7.890625 0.265625 C 6.554688 0.265625 5.382812 -0.00390625 4.375 -0.546875 C 3.375 -1.097656 2.597656 -1.898438 2.046875 -2.953125 C 1.492188 -4.015625 1.21875 -5.289062 1.21875 -6.78125 C 1.21875 -8.269531 1.492188 -9.546875 2.046875 -10.609375 C 2.597656 -11.671875 3.375 -12.472656 4.375 -13.015625 C 5.382812 -13.554688 6.554688 -13.828125 7.890625 -13.828125 C 9.210938 -13.828125 10.375 -13.554688 11.375 -13.015625 C 12.382812 -12.472656 13.171875 -11.671875 13.734375 -10.609375 C 14.296875 -9.546875 14.578125 -8.269531 14.578125 -6.78125 C 14.578125 -5.289062 14.296875 -4.015625 13.734375 -2.953125 C 13.171875 -1.898438 12.382812 -1.097656 11.375 -0.546875 C 10.375 -0.00390625 9.210938 0.265625 7.890625 0.265625 Z M 7.890625 -2.640625 C 9.992188 -2.640625 11.046875 -4.019531 11.046875 -6.78125 C 11.046875 -8.21875 10.773438 -9.269531 10.234375 -9.9375 C 9.691406 -10.601562 8.910156 -10.9375 7.890625 -10.9375 C 5.773438 -10.9375 4.71875 -9.550781 4.71875 -6.78125 C 4.71875 -4.019531 5.773438 -2.640625 7.890625 -2.640625 Z M 7.890625 -2.640625 "/></g></g></g><g fill="#000000" fill-opacity="1"><g transform="translate(350.118972, 60.069624)"><g><path d="M 1.953125 0 L 1.953125 -13.578125 L 5.234375 -13.578125 L 5.234375 -11.75 L 5.484375 -11.703125 C 5.929688 -12.429688 6.453125 -12.96875 7.046875 -13.3125 C 7.640625 -13.65625 8.398438 -13.828125 9.328125 -13.828125 C 10.347656 -13.828125 11.171875 -13.625 11.796875 -13.21875 C 12.421875 -12.8125 12.878906 -12.21875 13.171875 -11.4375 L 13.421875 -11.4375 C 13.835938 -12.25 14.375 -12.847656 15.03125 -13.234375 C 15.695312 -13.628906 16.523438 -13.828125 17.515625 -13.828125 C 20.328125 -13.828125 21.734375 -12.257812 21.734375 -9.125 L 21.734375 0 L 18.328125 0 L 18.328125 -8.703125 C 18.328125 -9.492188 18.171875 -10.066406 17.859375 -10.421875 C 17.546875 -10.773438 17.046875 -10.953125 16.359375 -10.953125 C 14.484375 -10.953125 13.546875 -9.703125 13.546875 -7.203125 L 13.546875 0 L 10.140625 0 L 10.140625 -8.703125 C 10.140625 -9.492188 9.976562 -10.066406 9.65625 -10.421875 C 9.34375 -10.773438 8.84375 -10.953125 8.15625 -10.953125 C 7.28125 -10.953125 6.59375 -10.65625 6.09375 -10.0625 C 5.601562 -9.476562 5.359375 -8.546875 5.359375 -7.265625 L 5.359375 0 Z M 1.953125 0 "/></g></g></g><path fill="#545454" d="M 35.363281 65.996094 L 41.253906 62.59375 L 41.269531 62.59375 L 47.160156 59.191406 L 48.910156 58.179688 L 48.910156 24.683594 L 47.160156 23.671875 L 41.269531 20.273438 L 41.253906 20.273438 L 35.363281 16.871094 L 33.625 15.867188 L 31.886719 16.871094 L 25.992188 20.273438 L 25.980469 20.273438 L 20.085938 23.671875 L 18.335938 24.683594 L 18.335938 58.179688 L 20.085938 59.191406 L 25.980469 62.59375 L 25.992188 62.59375 L 31.886719 65.996094 L 33.625 67 Z M 37.769531 56.550781 L 33.625 58.941406 L 29.480469 56.550781 L 29.484375 56.542969 L 25.34375 54.152344 L 25.34375 28.710938 L 29.484375 26.320312 L 29.480469 26.316406 L 33.625 23.921875 L 37.769531 26.316406 L 37.765625 26.320312 L 41.90625 28.710938 L 41.90625 54.152344 L 37.765625 56.542969 L 37.769531 56.550781 " fill-opacity="1" fill-rule="nonzero"/><g clip-path="url(#a9d7c24702)"><path fill="#000000" d="M 62.632812 50.242188 L 62.640625 50.238281 L 62.640625 16.765625 L 60.875 15.746094 L 48.128906 8.386719 L 48.132812 8.382812 L 35.375 1.015625 L 33.625 0.00390625 L 31.871094 1.015625 L 19.113281 8.382812 L 19.117188 8.386719 L 6.371094 15.746094 L 4.605469 16.765625 L 4.605469 50.238281 L 4.613281 50.242188 L 6.371094 49.230469 L 11.613281 46.203125 L 11.613281 20.777344 L 22.605469 14.429688 L 22.617188 14.429688 L 33.625 8.078125 L 44.628906 14.429688 L 44.640625 14.429688 L 55.632812 20.777344 L 55.632812 46.203125 L 60.875 49.230469 L 62.632812 50.242188 " fill-opacity="1" fill-rule="nonzero"/></g><path fill="#ed1c24" d="M 35.34375 65.996094 L 41.242188 62.59375 L 41.253906 62.59375 L 47.148438 59.191406 L 48.902344 58.179688 L 48.902344 24.683594 L 47.148438 23.671875 L 41.253906 20.273438 L 41.242188 20.273438 L 35.34375 16.871094 L 33.605469 15.867188 L 31.867188 16.871094 L 25.972656 20.273438 L 25.957031 20.273438 L 20.0625 23.671875 L 18.308594 24.683594 L 18.308594 58.179688 L 20.0625 59.191406 L 25.957031 62.59375 L 25.972656 62.59375 L 31.867188 65.996094 L 33.605469 67 Z M 37.753906 56.550781 L 33.605469 58.941406 L 29.460938 56.550781 L 29.464844 56.542969 L 25.320312 54.152344 L 25.320312 28.710938 L 29.464844 26.320312 L 29.460938 26.316406 L 33.605469 23.921875 L 37.753906 26.316406 L 37.75 26.320312 L 41.890625 28.710938 L 41.890625 54.152344 L 37.75 56.542969 L 37.753906 56.550781 " fill-opacity="1" fill-rule="nonzero"/><g clip-path="url(#0b1ba2e618)"><path fill="#ab0d0d" d="M 62.632812 50.242188 L 62.640625 50.238281 L 62.640625 16.765625 L 60.875 15.746094 L 48.121094 8.386719 L 48.125 8.382812 L 35.359375 1.015625 L 33.605469 0.00390625 L 31.851562 1.015625 L 19.089844 8.382812 L 19.09375 8.386719 L 6.335938 15.746094 L 4.570312 16.765625 L 4.570312 50.238281 L 4.582031 50.242188 L 6.335938 49.230469 L 11.582031 46.203125 L 11.582031 20.777344 L 22.582031 14.429688 L 22.59375 14.429688 L 33.605469 8.078125 L 44.617188 14.429688 L 44.632812 14.429688 L 55.628906 20.777344 L 55.628906 46.203125 L 60.875 49.230469 L 62.632812 50.242188 " fill-opacity="1" fill-rule="nonzero"/></g></svg>
